<svg xmlns="http://www.w3.org/2000/svg" xmlns:xlink="http://www.w3.org/1999/xlink" width="250" zoomAndPan="magnify" viewBox="0 0 187.5 38.999999" height="52" preserveAspectRatio="xMidYMid meet" version="1.0"><defs><g/><clipPath id="2d72ee2321"><path d="M 2.171875 2.378906 L 6.046875 2.378906 L 6.046875 6.257812 L 2.171875 6.257812 Z M 2.171875 2.378906 " clip-rule="nonzero"/></clipPath><clipPath id="e1e6ce4058"><path d="M 4.109375 6.257812 C 5.179688 6.257812 6.046875 5.390625 6.046875 4.320312 C 6.046875 3.25 5.179688 2.378906 4.109375 2.378906 C 3.039062 2.378906 2.171875 3.25 2.171875 4.320312 C 2.171875 5.390625 3.039062 6.257812 4.109375 6.257812 " clip-rule="nonzero"/></clipPath><clipPath id="9bb736ddee"><path d="M 14.96875 0.0507812 L 23.457031 0.0507812 L 23.457031 8.539062 L 14.96875 8.539062 Z M 14.96875 0.0507812 " clip-rule="nonzero"/></clipPath><clipPath id="d0e2db1a69"><path d="M 23.457031 4.296875 C 23.457031 1.953125 21.558594 0.0507812 19.214844 0.0507812 C 16.871094 0.0507812 14.96875 1.953125 14.96875 4.296875 C 14.96875 6.640625 16.871094 8.539062 19.214844 8.539062 C 21.558594 8.539062 23.457031 6.640625 23.457031 4.296875 " clip-rule="nonzero"/></clipPath><clipPath id="9e4ded10bb"><path d="M 7.558594 1.328125 L 13.457031 1.328125 L 13.457031 7.226562 L 7.558594 7.226562 Z M 7.558594 1.328125 " clip-rule="nonzero"/></clipPath><clipPath id="979400e7a3"><path d="M 13.457031 4.277344 C 13.457031 2.648438 12.136719 1.328125 10.507812 1.328125 C 8.878906 1.328125 7.558594 2.648438 7.558594 4.277344 C 7.558594 5.90625 8.878906 7.226562 10.507812 7.226562 C 12.136719 7.226562 13.457031 5.90625 13.457031 4.277344 " clip-rule="nonzero"/></clipPath><clipPath id="620380ce82"><path d="M 32 2 L 37 2 L 37 7 L 32 7 Z M 32 2 " clip-rule="nonzero"/></clipPath><clipPath id="1f3bb6b3df"><path d="M 32.542969 2.679688 L 36.417969 2.753906 L 36.339844 6.632812 L 32.464844 6.554688 Z M 32.542969 2.679688 " clip-rule="nonzero"/></clipPath><clipPath id="b3958344b1"><path d="M 34.480469 2.71875 C 33.410156 2.695312 32.523438 3.546875 32.503906 4.617188 C 32.484375 5.6875 33.332031 6.570312 34.402344 6.59375 C 35.472656 6.613281 36.359375 5.761719 36.378906 4.691406 C 36.402344 3.625 35.550781 2.738281 34.480469 2.71875 " clip-rule="nonzero"/></clipPath><clipPath id="98ad29be8c"><path d="M 25 1 L 31 1 L 31 8 L 25 8 Z M 25 1 " clip-rule="nonzero"/></clipPath><clipPath id="1479a9c89b"><path d="M 25.035156 7.457031 L 25.152344 1.558594 L 31.050781 1.675781 L 30.933594 7.574219 Z M 25.035156 7.457031 " clip-rule="nonzero"/></clipPath><clipPath id="587ffbedb8"><path d="M 25.09375 4.507812 C 25.0625 6.136719 26.355469 7.484375 27.984375 7.515625 C 29.613281 7.550781 30.960938 6.253906 30.992188 4.625 C 31.027344 2.996094 29.730469 1.652344 28.101562 1.617188 C 26.472656 1.585938 25.128906 2.878906 25.09375 4.507812 " clip-rule="nonzero"/></clipPath><clipPath id="c28ee0ac0a"><path d="M 2.328125 32.871094 L 6.203125 32.871094 L 6.203125 36.746094 L 2.328125 36.746094 Z M 2.328125 32.871094 " clip-rule="nonzero"/></clipPath><clipPath id="42aad64e51"><path d="M 6.203125 34.808594 C 6.203125 33.738281 5.335938 32.871094 4.265625 32.871094 C 3.195312 32.871094 2.328125 33.738281 2.328125 34.808594 C 2.328125 35.878906 3.195312 36.746094 4.265625 36.746094 C 5.335938 36.746094 6.203125 35.878906 6.203125 34.808594 " clip-rule="nonzero"/></clipPath><clipPath id="3b67fb5761"><path d="M 0 15.460938 L 8.488281 15.460938 L 8.488281 23.949219 L 0 23.949219 Z M 0 15.460938 " clip-rule="nonzero"/></clipPath><clipPath id="b1c771140b"><path d="M 4.246094 15.460938 C 1.898438 15.460938 0 17.359375 0 19.703125 C 0 22.046875 1.898438 23.949219 4.246094 23.949219 C 6.589844 23.949219 8.488281 22.046875 8.488281 19.703125 C 8.488281 17.359375 6.589844 15.460938 4.246094 15.460938 " clip-rule="nonzero"/></clipPath><clipPath id="4b38687437"><path d="M 1.277344 25.460938 L 7.175781 25.460938 L 7.175781 31.359375 L 1.277344 31.359375 Z M 1.277344 25.460938 " clip-rule="nonzero"/></clipPath><clipPath id="3a83efec2f"><path d="M 4.226562 25.460938 C 2.597656 25.460938 1.277344 26.78125 1.277344 28.410156 C 1.277344 30.039062 2.597656 31.359375 4.226562 31.359375 C 5.855469 31.359375 7.175781 30.039062 7.175781 28.410156 C 7.175781 26.78125 5.855469 25.460938 4.226562 25.460938 " clip-rule="nonzero"/></clipPath><clipPath id="99af1ff104"><path d="M 1 7 L 8 7 L 8 14 L 1 14 Z M 1 7 " clip-rule="nonzero"/></clipPath><clipPath id="0f880074f6"><path d="M 7.40625 13.878906 L 1.507812 13.761719 L 1.625 7.863281 L 7.523438 7.980469 Z M 7.40625 13.878906 " clip-rule="nonzero"/></clipPath><clipPath id="c3a7637040"><path d="M 4.457031 13.820312 C 6.085938 13.855469 7.433594 12.558594 7.464844 10.929688 C 7.496094 9.300781 6.203125 7.957031 4.574219 7.921875 C 2.945312 7.890625 1.597656 9.183594 1.566406 10.8125 C 1.535156 12.441406 2.828125 13.789062 4.457031 13.820312 " clip-rule="nonzero"/></clipPath><clipPath id="4fe9ee026f"><path d="M 32.539062 33.164062 L 36.414062 33.164062 L 36.414062 37.039062 L 32.539062 37.039062 Z M 32.539062 33.164062 " clip-rule="nonzero"/></clipPath><clipPath id="fa2f013e97"><path d="M 36.414062 35.101562 C 36.414062 34.03125 35.546875 33.164062 34.476562 33.164062 C 33.40625 33.164062 32.539062 34.03125 32.539062 35.101562 C 32.539062 36.171875 33.40625 37.039062 34.476562 37.039062 C 35.546875 37.039062 36.414062 36.171875 36.414062 35.101562 " clip-rule="nonzero"/></clipPath><clipPath id="abf682660e"><path d="M 30.210938 15.753906 L 38.699219 15.753906 L 38.699219 24.242188 L 30.210938 24.242188 Z M 30.210938 15.753906 " clip-rule="nonzero"/></clipPath><clipPath id="a4b7eabef7"><path d="M 34.453125 15.753906 C 32.109375 15.753906 30.210938 17.65625 30.210938 20 C 30.210938 22.34375 32.109375 24.242188 34.453125 24.242188 C 36.796875 24.242188 38.699219 22.34375 38.699219 20 C 38.699219 17.65625 36.796875 15.753906 34.453125 15.753906 " clip-rule="nonzero"/></clipPath><clipPath id="4ae56eaf91"><path d="M 31.488281 25.753906 L 37.386719 25.753906 L 37.386719 31.65625 L 31.488281 31.65625 Z M 31.488281 25.753906 " clip-rule="nonzero"/></clipPath><clipPath id="dc2084e3ed"><path d="M 34.4375 25.753906 C 32.808594 25.753906 31.488281 27.074219 31.488281 28.703125 C 31.488281 30.332031 32.808594 31.65625 34.4375 31.65625 C 36.066406 31.65625 37.386719 30.332031 37.386719 28.703125 C 37.386719 27.074219 36.066406 25.753906 34.4375 25.753906 " clip-rule="nonzero"/></clipPath><clipPath id="86b11ff3d4"><path d="M 31 8 L 38 8 L 38 15 L 31 15 Z M 31 8 " clip-rule="nonzero"/></clipPath><clipPath id="09b5524dbf"><path d="M 37.617188 14.175781 L 31.71875 14.058594 L 31.835938 8.160156 L 37.734375 8.277344 Z M 37.617188 14.175781 " clip-rule="nonzero"/></clipPath><clipPath id="74a746a149"><path d="M 34.667969 14.117188 C 36.296875 14.148438 37.644531 12.855469 37.675781 11.226562 C 37.707031 9.597656 36.414062 8.25 34.785156 8.21875 C 33.15625 8.183594 31.808594 9.480469 31.777344 11.109375 C 31.746094 12.738281 33.039062 14.082031 34.667969 14.117188 " clip-rule="nonzero"/></clipPath><clipPath id="fdb6f25083"><path d="M 14.96875 30.5625 L 23.457031 30.5625 L 23.457031 38.945312 L 14.96875 38.945312 Z M 14.96875 30.5625 " clip-rule="nonzero"/></clipPath><clipPath id="85393cb197"><path d="M 23.457031 34.808594 C 23.457031 32.464844 21.558594 30.5625 19.214844 30.5625 C 16.871094 30.5625 14.96875 32.464844 14.96875 34.808594 C 14.96875 37.152344 16.871094 39.050781 19.214844 39.050781 C 21.558594 39.050781 23.457031 37.152344 23.457031 34.808594 " clip-rule="nonzero"/></clipPath><clipPath id="782580783c"><path d="M 7.558594 31.839844 L 13.457031 31.839844 L 13.457031 37.738281 L 7.558594 37.738281 Z M 7.558594 31.839844 " clip-rule="nonzero"/></clipPath><clipPath id="d6851d5350"><path d="M 13.457031 34.789062 C 13.457031 33.160156 12.136719 31.839844 10.507812 31.839844 C 8.878906 31.839844 7.558594 33.160156 7.558594 34.789062 C 7.558594 36.417969 8.878906 37.738281 10.507812 37.738281 C 12.136719 37.738281 13.457031 36.417969 13.457031 34.789062 " clip-rule="nonzero"/></clipPath><clipPath id="369d3a9636"><path d="M 25 32 L 31 32 L 31 38.945312 L 25 38.945312 Z M 25 32 " clip-rule="nonzero"/></clipPath><clipPath id="7b7757bfab"><path d="M 25.035156 37.96875 L 25.152344 32.070312 L 31.050781 32.1875 L 30.933594 38.085938 Z M 25.035156 37.96875 " clip-rule="nonzero"/></clipPath><clipPath id="8126b83e34"><path d="M 25.09375 35.019531 C 25.0625 36.648438 26.355469 37.996094 27.984375 38.027344 C 29.613281 38.0625 30.960938 36.765625 30.992188 35.136719 C 31.027344 33.507812 29.730469 32.164062 28.101562 32.128906 C 26.472656 32.097656 25.128906 33.390625 25.09375 35.019531 " clip-rule="nonzero"/></clipPath><clipPath id="a4772a1769"><path d="M 9.671875 16.445312 L 15.570312 16.445312 L 15.570312 22.34375 L 9.671875 22.34375 Z M 9.671875 16.445312 " clip-rule="nonzero"/></clipPath><clipPath id="9333c30acc"><path d="M 15.570312 19.394531 C 15.570312 17.765625 14.25 16.445312 12.621094 16.445312 C 10.992188 16.445312 9.671875 17.765625 9.671875 19.394531 C 9.671875 21.023438 10.992188 22.34375 12.621094 22.34375 C 14.25 22.34375 15.570312 21.023438 15.570312 19.394531 " clip-rule="nonzero"/></clipPath><clipPath id="6734604b0f"><path d="M 22.863281 16.445312 L 28.761719 16.445312 L 28.761719 22.34375 L 22.863281 22.34375 Z M 22.863281 16.445312 " clip-rule="nonzero"/></clipPath><clipPath id="4833f15477"><path d="M 28.761719 19.394531 C 28.761719 17.765625 27.441406 16.445312 25.8125 16.445312 C 24.183594 16.445312 22.863281 17.765625 22.863281 19.394531 C 22.863281 21.023438 24.183594 22.34375 25.8125 22.34375 C 27.441406 22.34375 28.761719 21.023438 28.761719 19.394531 " clip-rule="nonzero"/></clipPath><clipPath id="d62f0bb288"><path d="M 17.273438 17.457031 L 21.148438 17.457031 L 21.148438 21.332031 L 17.273438 21.332031 Z M 17.273438 17.457031 " clip-rule="nonzero"/></clipPath><clipPath id="87c62c149d"><path d="M 21.148438 19.394531 C 21.148438 18.324219 20.28125 17.457031 19.210938 17.457031 C 18.140625 17.457031 17.273438 18.324219 17.273438 19.394531 C 17.273438 20.464844 18.140625 21.332031 19.210938 21.332031 C 20.28125 21.332031 21.148438 20.464844 21.148438 19.394531 " clip-rule="nonzero"/></clipPath><clipPath id="52df8f0ab4"><path d="M 16.265625 9.847656 L 22.167969 9.847656 L 22.167969 15.746094 L 16.265625 15.746094 Z M 16.265625 9.847656 " clip-rule="nonzero"/></clipPath><clipPath id="4fcff32c4b"><path d="M 19.214844 15.746094 C 20.84375 15.746094 22.167969 14.425781 22.167969 12.796875 C 22.167969 11.167969 20.84375 9.847656 19.214844 9.847656 C 17.585938 9.847656 16.265625 11.167969 16.265625 12.796875 C 16.265625 14.425781 17.585938 15.746094 19.214844 15.746094 " clip-rule="nonzero"/></clipPath><clipPath id="592f5e7d67"><path d="M 16.265625 23.035156 L 22.167969 23.035156 L 22.167969 28.933594 L 16.265625 28.933594 Z M 16.265625 23.035156 " clip-rule="nonzero"/></clipPath><clipPath id="77e0867929"><path d="M 19.214844 28.933594 C 20.84375 28.933594 22.167969 27.613281 22.167969 25.984375 C 22.167969 24.355469 20.84375 23.035156 19.214844 23.035156 C 17.585938 23.035156 16.265625 24.355469 16.265625 25.984375 C 16.265625 27.613281 17.585938 28.933594 19.214844 28.933594 " clip-rule="nonzero"/></clipPath><clipPath id="6fafdc0554"><path d="M 9.757812 10.300781 L 13.632812 10.300781 L 13.632812 14.175781 L 9.757812 14.175781 Z M 9.757812 10.300781 " clip-rule="nonzero"/></clipPath><clipPath id="1ce1531e8c"><path d="M 13.632812 12.238281 C 13.632812 11.167969 12.765625 10.300781 11.695312 10.300781 C 10.625 10.300781 9.757812 11.167969 9.757812 12.238281 C 9.757812 13.308594 10.625 14.175781 11.695312 14.175781 C 12.765625 14.175781 13.632812 13.308594 13.632812 12.238281 " clip-rule="nonzero"/></clipPath><clipPath id="0945f8456c"><path d="M 9.757812 23.816406 L 13.632812 23.816406 L 13.632812 27.691406 L 9.757812 27.691406 Z M 9.757812 23.816406 " clip-rule="nonzero"/></clipPath><clipPath id="5ff033d501"><path d="M 13.632812 25.753906 C 13.632812 24.683594 12.765625 23.816406 11.695312 23.816406 C 10.625 23.816406 9.757812 24.683594 9.757812 25.753906 C 9.757812 26.824219 10.625 27.691406 11.695312 27.691406 C 12.765625 27.691406 13.632812 26.824219 13.632812 25.753906 " clip-rule="nonzero"/></clipPath><clipPath id="0eafb50cba"><path d="M 25.636719 23.949219 L 29.511719 23.949219 L 29.511719 27.824219 L 25.636719 27.824219 Z M 25.636719 23.949219 " clip-rule="nonzero"/></clipPath><clipPath id="6cf2d430bc"><path d="M 29.511719 25.886719 C 29.511719 24.816406 28.644531 23.949219 27.574219 23.949219 C 26.503906 23.949219 25.636719 24.816406 25.636719 25.886719 C 25.636719 26.957031 26.503906 27.824219 27.574219 27.824219 C 28.644531 27.824219 29.511719 26.957031 29.511719 25.886719 " clip-rule="nonzero"/></clipPath><clipPath id="0acc4c3a01"><path d="M 25.636719 10.300781 L 29.511719 10.300781 L 29.511719 14.175781 L 25.636719 14.175781 Z M 25.636719 10.300781 " clip-rule="nonzero"/></clipPath><clipPath id="e7ede958e8"><path d="M 29.511719 12.238281 C 29.511719 11.167969 28.644531 10.300781 27.574219 10.300781 C 26.503906 10.300781 25.636719 11.167969 25.636719 12.238281 C 25.636719 13.308594 26.503906 14.175781 27.574219 14.175781 C 28.644531 14.175781 29.511719 13.308594 29.511719 12.238281 " clip-rule="nonzero"/></clipPath></defs><g clip-path="url(#2d72ee2321)"><g clip-path="url(#e1e6ce4058)"><path fill="#00adb4" d="M 6.046875 6.257812 L 2.171875 6.257812 L 2.171875 2.378906 L 6.046875 2.378906 Z M 6.046875 6.257812 " fill-opacity="1" fill-rule="nonzero"/></g></g><g clip-path="url(#9bb736ddee)"><g clip-path="url(#d0e2db1a69)"><path fill="#00adb4" d="M 23.457031 0.0507812 L 23.457031 8.539062 L 14.96875 8.539062 L 14.96875 0.0507812 Z M 23.457031 0.0507812 " fill-opacity="1" fill-rule="nonzero"/></g></g><g clip-path="url(#9e4ded10bb)"><g clip-path="url(#979400e7a3)"><path fill="#00adb4" d="M 13.457031 1.328125 L 13.457031 7.226562 L 7.558594 7.226562 L 7.558594 1.328125 Z M 13.457031 1.328125 " fill-opacity="1" fill-rule="nonzero"/></g></g><g clip-path="url(#620380ce82)"><g clip-path="url(#1f3bb6b3df)"><g clip-path="url(#b3958344b1)"><path fill="#00adb4" d="M 32.542969 2.679688 L 36.417969 2.753906 L 36.339844 6.632812 L 32.464844 6.554688 Z M 32.542969 2.679688 " fill-opacity="1" fill-rule="nonzero"/></g></g></g><g clip-path="url(#98ad29be8c)"><g clip-path="url(#1479a9c89b)"><g clip-path="url(#587ffbedb8)"><path fill="#00adb4" d="M 25.035156 7.457031 L 25.152344 1.558594 L 31.050781 1.675781 L 30.933594 7.574219 Z M 25.035156 7.457031 " fill-opacity="1" fill-rule="nonzero"/></g></g></g><g clip-path="url(#c28ee0ac0a)"><g clip-path="url(#42aad64e51)"><path fill="#00adb4" d="M 6.203125 32.871094 L 6.203125 36.746094 L 2.328125 36.746094 L 2.328125 32.871094 Z M 6.203125 32.871094 " fill-opacity="1" fill-rule="nonzero"/></g></g><g clip-path="url(#3b67fb5761)"><g clip-path="url(#b1c771140b)"><path fill="#00adb4" d="M 0 15.460938 L 8.488281 15.460938 L 8.488281 23.949219 L 0 23.949219 Z M 0 15.460938 " fill-opacity="1" fill-rule="nonzero"/></g></g><g clip-path="url(#4b38687437)"><g clip-path="url(#3a83efec2f)"><path fill="#00adb4" d="M 1.277344 25.460938 L 7.175781 25.460938 L 7.175781 31.359375 L 1.277344 31.359375 Z M 1.277344 25.460938 " fill-opacity="1" fill-rule="nonzero"/></g></g><g clip-path="url(#99af1ff104)"><g clip-path="url(#0f880074f6)"><g clip-path="url(#c3a7637040)"><path fill="#00adb4" d="M 7.40625 13.878906 L 1.507812 13.761719 L 1.625 7.863281 L 7.523438 7.980469 Z M 7.40625 13.878906 " fill-opacity="1" fill-rule="nonzero"/></g></g></g><g clip-path="url(#4fe9ee026f)"><g clip-path="url(#fa2f013e97)"><path fill="#00adb4" d="M 36.414062 33.164062 L 36.414062 37.039062 L 32.539062 37.039062 L 32.539062 33.164062 Z M 36.414062 33.164062 " fill-opacity="1" fill-rule="nonzero"/></g></g><g clip-path="url(#abf682660e)"><g clip-path="url(#a4b7eabef7)"><path fill="#00adb4" d="M 30.210938 15.753906 L 38.699219 15.753906 L 38.699219 24.242188 L 30.210938 24.242188 Z M 30.210938 15.753906 " fill-opacity="1" fill-rule="nonzero"/></g></g><g clip-path="url(#4ae56eaf91)"><g clip-path="url(#dc2084e3ed)"><path fill="#00adb4" d="M 31.488281 25.753906 L 37.386719 25.753906 L 37.386719 31.65625 L 31.488281 31.65625 Z M 31.488281 25.753906 " fill-opacity="1" fill-rule="nonzero"/></g></g><g clip-path="url(#86b11ff3d4)"><g clip-path="url(#09b5524dbf)"><g clip-path="url(#74a746a149)"><path fill="#00adb4" d="M 37.617188 14.175781 L 31.71875 14.058594 L 31.835938 8.160156 L 37.734375 8.277344 Z M 37.617188 14.175781 " fill-opacity="1" fill-rule="nonzero"/></g></g></g><g clip-path="url(#fdb6f25083)"><g clip-path="url(#85393cb197)"><path fill="#00adb4" d="M 23.457031 30.5625 L 23.457031 39.050781 L 14.96875 39.050781 L 14.96875 30.5625 Z M 23.457031 30.5625 " fill-opacity="1" fill-rule="nonzero"/></g></g><g clip-path="url(#782580783c)"><g clip-path="url(#d6851d5350)"><path fill="#00adb4" d="M 13.457031 31.839844 L 13.457031 37.738281 L 7.558594 37.738281 L 7.558594 31.839844 Z M 13.457031 31.839844 " fill-opacity="1" fill-rule="nonzero"/></g></g><g clip-path="url(#369d3a9636)"><g clip-path="url(#7b7757bfab)"><g clip-path="url(#8126b83e34)"><path fill="#00adb4" d="M 25.035156 37.96875 L 25.152344 32.070312 L 31.050781 32.1875 L 30.933594 38.085938 Z M 25.035156 37.96875 " fill-opacity="1" fill-rule="nonzero"/></g></g></g><g clip-path="url(#a4772a1769)"><g clip-path="url(#9333c30acc)"><path fill="#00adb4" d="M 15.570312 16.445312 L 15.570312 22.34375 L 9.671875 22.34375 L 9.671875 16.445312 Z M 15.570312 16.445312 " fill-opacity="1" fill-rule="nonzero"/></g></g><g clip-path="url(#6734604b0f)"><g clip-path="url(#4833f15477)"><path fill="#00adb4" d="M 28.761719 16.445312 L 28.761719 22.34375 L 22.863281 22.34375 L 22.863281 16.445312 Z M 28.761719 16.445312 " fill-opacity="1" fill-rule="nonzero"/></g></g><g clip-path="url(#d62f0bb288)"><g clip-path="url(#87c62c149d)"><path fill="#00adb4" d="M 21.148438 17.457031 L 21.148438 21.332031 L 17.273438 21.332031 L 17.273438 17.457031 Z M 21.148438 17.457031 " fill-opacity="1" fill-rule="nonzero"/></g></g><g clip-path="url(#52df8f0ab4)"><g clip-path="url(#4fcff32c4b)"><path fill="#00adb4" d="M 22.167969 15.746094 L 16.265625 15.746094 L 16.265625 9.847656 L 22.167969 9.847656 Z M 22.167969 15.746094 " fill-opacity="1" fill-rule="nonzero"/></g></g><g clip-path="url(#592f5e7d67)"><g clip-path="url(#77e0867929)"><path fill="#00adb4" d="M 22.167969 28.933594 L 16.265625 28.933594 L 16.265625 23.035156 L 22.167969 23.035156 Z M 22.167969 28.933594 " fill-opacity="1" fill-rule="nonzero"/></g></g><g clip-path="url(#6fafdc0554)"><g clip-path="url(#1ce1531e8c)"><path fill="#00adb4" d="M 13.632812 10.300781 L 13.632812 14.175781 L 9.757812 14.175781 L 9.757812 10.300781 Z M 13.632812 10.300781 " fill-opacity="1" fill-rule="nonzero"/></g></g><g clip-path="url(#0945f8456c)"><g clip-path="url(#5ff033d501)"><path fill="#00adb4" d="M 13.632812 23.816406 L 13.632812 27.691406 L 9.757812 27.691406 L 9.757812 23.816406 Z M 13.632812 23.816406 " fill-opacity="1" fill-rule="nonzero"/></g></g><g clip-path="url(#0eafb50cba)"><g clip-path="url(#6cf2d430bc)"><path fill="#00adb4" d="M 29.511719 23.949219 L 29.511719 27.824219 L 25.636719 27.824219 L 25.636719 23.949219 Z M 29.511719 23.949219 " fill-opacity="1" fill-rule="nonzero"/></g></g><g clip-path="url(#0acc4c3a01)"><g clip-path="url(#e7ede958e8)"><path fill="#00adb4" d="M 29.511719 10.300781 L 29.511719 14.175781 L 25.636719 14.175781 L 25.636719 10.300781 Z M 29.511719 10.300781 " fill-opacity="1" fill-rule="nonzero"/></g></g><g fill="#ffffff" fill-opacity="1"><g transform="translate(51.236737, 25.969047)"><g><path d="M 3.625 0 L 1.71875 0 L 1.71875 -12.15625 L 3.625 -12.15625 Z M 3.625 0 "/></g></g></g><g fill="#ffffff" fill-opacity="1"><g transform="translate(56.585195, 25.969047)"><g><path d="M 1.46875 0 L 1.46875 -9.171875 L 3.203125 -9.171875 L 3.203125 -7.890625 L 3.390625 -7.84375 C 3.691406 -8.351562 4.050781 -8.726562 4.46875 -8.96875 C 4.894531 -9.21875 5.414062 -9.34375 6.03125 -9.34375 C 6.738281 -9.34375 7.296875 -9.207031 7.703125 -8.9375 C 8.109375 -8.664062 8.410156 -8.25 8.609375 -7.6875 L 8.796875 -7.6875 C 9.085938 -8.25 9.460938 -8.664062 9.921875 -8.9375 C 10.378906 -9.207031 10.941406 -9.34375 11.609375 -9.34375 C 12.566406 -9.34375 13.273438 -9.082031 13.734375 -8.5625 C 14.203125 -8.039062 14.4375 -7.257812 14.4375 -6.21875 L 14.4375 0 L 12.609375 0 L 12.609375 -6.046875 C 12.609375 -6.648438 12.484375 -7.085938 12.234375 -7.359375 C 11.984375 -7.640625 11.585938 -7.78125 11.046875 -7.78125 C 10.378906 -7.78125 9.847656 -7.546875 9.453125 -7.078125 C 9.054688 -6.617188 8.859375 -5.863281 8.859375 -4.8125 L 8.859375 0 L 7.03125 0 L 7.03125 -6.046875 C 7.03125 -6.648438 6.90625 -7.085938 6.65625 -7.359375 C 6.414062 -7.640625 6.023438 -7.78125 5.484375 -7.78125 C 4.816406 -7.78125 4.285156 -7.550781 3.890625 -7.09375 C 3.492188 -6.644531 3.296875 -5.910156 3.296875 -4.890625 L 3.296875 0 Z M 1.46875 0 "/></g></g></g><g fill="#ffffff" fill-opacity="1"><g transform="translate(72.339435, 25.969047)"><g><path d="M 1.46875 3.71875 L 1.46875 -9.171875 L 3.296875 -9.171875 L 3.296875 -7.890625 L 3.46875 -7.859375 C 3.78125 -8.359375 4.175781 -8.726562 4.65625 -8.96875 C 5.132812 -9.21875 5.6875 -9.34375 6.3125 -9.34375 C 7.0625 -9.34375 7.71875 -9.164062 8.28125 -8.8125 C 8.84375 -8.46875 9.273438 -7.9375 9.578125 -7.21875 C 9.890625 -6.507812 10.046875 -5.628906 10.046875 -4.578125 C 10.046875 -3.535156 9.878906 -2.65625 9.546875 -1.9375 C 9.222656 -1.226562 8.769531 -0.695312 8.1875 -0.34375 C 7.613281 0 6.945312 0.171875 6.1875 0.171875 C 5.59375 0.171875 5.070312 0.0703125 4.625 -0.125 C 4.175781 -0.332031 3.789062 -0.660156 3.46875 -1.109375 L 3.296875 -1.078125 L 3.296875 3.71875 Z M 5.71875 -1.40625 C 6.507812 -1.40625 7.113281 -1.660156 7.53125 -2.171875 C 7.945312 -2.679688 8.15625 -3.484375 8.15625 -4.578125 C 8.15625 -5.679688 7.945312 -6.488281 7.53125 -7 C 7.113281 -7.507812 6.507812 -7.765625 5.71875 -7.765625 C 4.976562 -7.765625 4.382812 -7.5 3.9375 -6.96875 C 3.5 -6.445312 3.28125 -5.648438 3.28125 -4.578125 C 3.28125 -3.515625 3.5 -2.71875 3.9375 -2.1875 C 4.382812 -1.664062 4.976562 -1.40625 5.71875 -1.40625 Z M 5.71875 -1.40625 "/></g></g></g><g fill="#ffffff" fill-opacity="1"><g transform="translate(83.310842, 25.969047)"><g><path d="M 1.46875 0 L 1.46875 -9.171875 L 3.234375 -9.171875 L 3.234375 -7.78125 L 3.40625 -7.734375 C 3.625 -8.265625 3.921875 -8.648438 4.296875 -8.890625 C 4.679688 -9.128906 5.148438 -9.25 5.703125 -9.25 C 6.273438 -9.25 6.707031 -9.148438 7 -8.953125 L 6.625 -7.390625 L 6.453125 -7.34375 C 6.296875 -7.414062 6.132812 -7.46875 5.96875 -7.5 C 5.8125 -7.539062 5.628906 -7.5625 5.421875 -7.5625 C 4.734375 -7.5625 4.207031 -7.3125 3.84375 -6.8125 C 3.476562 -6.320312 3.296875 -5.519531 3.296875 -4.40625 L 3.296875 0 Z M 1.46875 0 "/></g></g></g><g fill="#ffffff" fill-opacity="1"><g transform="translate(90.455981, 25.969047)"><g><path d="M 8.90625 -4.171875 L 2.796875 -4.171875 C 2.898438 -2.328125 3.753906 -1.40625 5.359375 -1.40625 C 5.953125 -1.40625 6.429688 -1.507812 6.796875 -1.71875 C 7.160156 -1.9375 7.445312 -2.273438 7.65625 -2.734375 L 7.828125 -2.734375 L 9.046875 -1.984375 C 8.753906 -1.328125 8.3125 -0.800781 7.71875 -0.40625 C 7.125 -0.0195312 6.335938 0.171875 5.359375 0.171875 C 4.441406 0.171875 3.648438 -0.00390625 2.984375 -0.359375 C 2.328125 -0.710938 1.816406 -1.242188 1.453125 -1.953125 C 1.097656 -2.660156 0.921875 -3.535156 0.921875 -4.578125 C 0.921875 -5.617188 1.109375 -6.5 1.484375 -7.21875 C 1.859375 -7.9375 2.375 -8.46875 3.03125 -8.8125 C 3.6875 -9.164062 4.421875 -9.34375 5.234375 -9.34375 C 6.472656 -9.34375 7.425781 -9.003906 8.09375 -8.328125 C 8.769531 -7.648438 9.113281 -6.65625 9.125 -5.34375 C 9.125 -4.851562 9.109375 -4.5 9.078125 -4.28125 Z M 7.34375 -5.484375 C 7.320312 -6.316406 7.132812 -6.925781 6.78125 -7.3125 C 6.425781 -7.695312 5.910156 -7.890625 5.234375 -7.890625 C 4.554688 -7.890625 4.015625 -7.695312 3.609375 -7.3125 C 3.203125 -6.925781 2.945312 -6.316406 2.84375 -5.484375 Z M 7.34375 -5.484375 "/></g></g></g><g fill="#ffffff" fill-opacity="1"><g transform="translate(100.337732, 25.969047)"><g><path d="M 4.234375 0.171875 C 3.640625 0.171875 3.085938 0.0976562 2.578125 -0.046875 C 2.078125 -0.203125 1.648438 -0.410156 1.296875 -0.671875 C 0.941406 -0.929688 0.6875 -1.226562 0.53125 -1.5625 L 1.5625 -2.671875 L 1.734375 -2.671875 C 2.335938 -1.796875 3.175781 -1.359375 4.25 -1.359375 C 4.8125 -1.359375 5.238281 -1.460938 5.53125 -1.671875 C 5.820312 -1.890625 5.96875 -2.191406 5.96875 -2.578125 C 5.96875 -2.878906 5.867188 -3.128906 5.671875 -3.328125 C 5.484375 -3.523438 5.179688 -3.671875 4.765625 -3.765625 L 3.390625 -4.109375 C 2.523438 -4.316406 1.890625 -4.640625 1.484375 -5.078125 C 1.078125 -5.515625 0.875 -6.066406 0.875 -6.734375 C 0.875 -7.265625 1.007812 -7.726562 1.28125 -8.125 C 1.5625 -8.519531 1.953125 -8.820312 2.453125 -9.03125 C 2.960938 -9.238281 3.554688 -9.34375 4.234375 -9.34375 C 5.078125 -9.34375 5.753906 -9.222656 6.265625 -8.984375 C 6.773438 -8.753906 7.175781 -8.4375 7.46875 -8.03125 L 6.46875 -6.984375 L 6.296875 -6.984375 C 6.023438 -7.296875 5.722656 -7.519531 5.390625 -7.65625 C 5.054688 -7.800781 4.671875 -7.875 4.234375 -7.875 C 3.703125 -7.875 3.300781 -7.78125 3.03125 -7.59375 C 2.757812 -7.414062 2.625 -7.15625 2.625 -6.8125 C 2.625 -6.507812 2.722656 -6.265625 2.921875 -6.078125 C 3.117188 -5.890625 3.460938 -5.738281 3.953125 -5.625 L 5.28125 -5.3125 C 6.15625 -5.113281 6.785156 -4.796875 7.171875 -4.359375 C 7.566406 -3.921875 7.765625 -3.351562 7.765625 -2.65625 C 7.765625 -2.09375 7.625 -1.597656 7.34375 -1.171875 C 7.070312 -0.753906 6.671875 -0.425781 6.140625 -0.1875 C 5.617188 0.0507812 4.984375 0.171875 4.234375 0.171875 Z M 4.234375 0.171875 "/></g></g></g><g fill="#ffffff" fill-opacity="1"><g transform="translate(108.813745, 25.969047)"><g><path d="M 4.234375 0.171875 C 3.640625 0.171875 3.085938 0.0976562 2.578125 -0.046875 C 2.078125 -0.203125 1.648438 -0.410156 1.296875 -0.671875 C 0.941406 -0.929688 0.6875 -1.226562 0.53125 -1.5625 L 1.5625 -2.671875 L 1.734375 -2.671875 C 2.335938 -1.796875 3.175781 -1.359375 4.25 -1.359375 C 4.8125 -1.359375 5.238281 -1.460938 5.53125 -1.671875 C 5.820312 -1.890625 5.96875 -2.191406 5.96875 -2.578125 C 5.96875 -2.878906 5.867188 -3.128906 5.671875 -3.328125 C 5.484375 -3.523438 5.179688 -3.671875 4.765625 -3.765625 L 3.390625 -4.109375 C 2.523438 -4.316406 1.890625 -4.640625 1.484375 -5.078125 C 1.078125 -5.515625 0.875 -6.066406 0.875 -6.734375 C 0.875 -7.265625 1.007812 -7.726562 1.28125 -8.125 C 1.5625 -8.519531 1.953125 -8.820312 2.453125 -9.03125 C 2.960938 -9.238281 3.554688 -9.34375 4.234375 -9.34375 C 5.078125 -9.34375 5.753906 -9.222656 6.265625 -8.984375 C 6.773438 -8.753906 7.175781 -8.4375 7.46875 -8.03125 L 6.46875 -6.984375 L 6.296875 -6.984375 C 6.023438 -7.296875 5.722656 -7.519531 5.390625 -7.65625 C 5.054688 -7.800781 4.671875 -7.875 4.234375 -7.875 C 3.703125 -7.875 3.300781 -7.78125 3.03125 -7.59375 C 2.757812 -7.414062 2.625 -7.15625 2.625 -6.8125 C 2.625 -6.507812 2.722656 -6.265625 2.921875 -6.078125 C 3.117188 -5.890625 3.460938 -5.738281 3.953125 -5.625 L 5.28125 -5.3125 C 6.15625 -5.113281 6.785156 -4.796875 7.171875 -4.359375 C 7.566406 -3.921875 7.765625 -3.351562 7.765625 -2.65625 C 7.765625 -2.09375 7.625 -1.597656 7.34375 -1.171875 C 7.070312 -0.753906 6.671875 -0.425781 6.140625 -0.1875 C 5.617188 0.0507812 4.984375 0.171875 4.234375 0.171875 Z M 4.234375 0.171875 "/></g></g></g><g fill="#ffffff" fill-opacity="1"><g transform="translate(117.289758, 25.969047)"><g><path d="M 2.375 -10.609375 C 2.03125 -10.609375 1.742188 -10.71875 1.515625 -10.9375 C 1.296875 -11.15625 1.1875 -11.429688 1.1875 -11.765625 C 1.1875 -12.097656 1.296875 -12.375 1.515625 -12.59375 C 1.742188 -12.8125 2.03125 -12.921875 2.375 -12.921875 C 2.726562 -12.921875 3.015625 -12.8125 3.234375 -12.59375 C 3.460938 -12.375 3.578125 -12.097656 3.578125 -11.765625 C 3.578125 -11.429688 3.460938 -11.15625 3.234375 -10.9375 C 3.015625 -10.71875 2.726562 -10.609375 2.375 -10.609375 Z M 1.46875 0 L 1.46875 -9.171875 L 3.296875 -9.171875 L 3.296875 0 Z M 1.46875 0 "/></g></g></g><g fill="#ffffff" fill-opacity="1"><g transform="translate(122.03932, 25.969047)"><g><path d="M 5.296875 0.171875 C 4.410156 0.171875 3.640625 -0.0078125 2.984375 -0.375 C 2.328125 -0.738281 1.816406 -1.273438 1.453125 -1.984375 C 1.097656 -2.703125 0.921875 -3.566406 0.921875 -4.578125 C 0.921875 -5.597656 1.097656 -6.460938 1.453125 -7.171875 C 1.816406 -7.878906 2.328125 -8.414062 2.984375 -8.78125 C 3.640625 -9.15625 4.410156 -9.34375 5.296875 -9.34375 C 6.179688 -9.34375 6.953125 -9.15625 7.609375 -8.78125 C 8.265625 -8.414062 8.773438 -7.878906 9.140625 -7.171875 C 9.503906 -6.460938 9.6875 -5.597656 9.6875 -4.578125 C 9.6875 -3.566406 9.503906 -2.703125 9.140625 -1.984375 C 8.773438 -1.273438 8.265625 -0.738281 7.609375 -0.375 C 6.953125 -0.0078125 6.179688 0.171875 5.296875 0.171875 Z M 5.296875 -1.40625 C 6.953125 -1.40625 7.78125 -2.460938 7.78125 -4.578125 C 7.78125 -6.703125 6.953125 -7.765625 5.296875 -7.765625 C 4.492188 -7.765625 3.878906 -7.503906 3.453125 -6.984375 C 3.023438 -6.472656 2.8125 -5.671875 2.8125 -4.578125 C 2.8125 -2.460938 3.640625 -1.40625 5.296875 -1.40625 Z M 5.296875 -1.40625 "/></g></g></g><g fill="#ffffff" fill-opacity="1"><g transform="translate(132.636419, 25.969047)"><g><path d="M 1.46875 0 L 1.46875 -9.171875 L 3.203125 -9.171875 L 3.203125 -7.78125 L 3.390625 -7.75 C 3.679688 -8.269531 4.054688 -8.664062 4.515625 -8.9375 C 4.984375 -9.207031 5.554688 -9.34375 6.234375 -9.34375 C 7.304688 -9.34375 8.09375 -9.054688 8.59375 -8.484375 C 9.09375 -7.921875 9.34375 -7.070312 9.34375 -5.9375 L 9.34375 0 L 7.515625 0 L 7.515625 -5.78125 C 7.515625 -6.5 7.367188 -7.007812 7.078125 -7.3125 C 6.796875 -7.625 6.34375 -7.78125 5.71875 -7.78125 C 4.96875 -7.78125 4.375 -7.535156 3.9375 -7.046875 C 3.507812 -6.554688 3.296875 -5.785156 3.296875 -4.734375 L 3.296875 0 Z M 1.46875 0 "/></g></g></g><g fill="#ffffff" fill-opacity="1"><g transform="translate(143.291747, 25.969047)"><g><path d="M 4.234375 0.171875 C 3.640625 0.171875 3.085938 0.0976562 2.578125 -0.046875 C 2.078125 -0.203125 1.648438 -0.410156 1.296875 -0.671875 C 0.941406 -0.929688 0.6875 -1.226562 0.53125 -1.5625 L 1.5625 -2.671875 L 1.734375 -2.671875 C 2.335938 -1.796875 3.175781 -1.359375 4.25 -1.359375 C 4.8125 -1.359375 5.238281 -1.460938 5.53125 -1.671875 C 5.820312 -1.890625 5.96875 -2.191406 5.96875 -2.578125 C 5.96875 -2.878906 5.867188 -3.128906 5.671875 -3.328125 C 5.484375 -3.523438 5.179688 -3.671875 4.765625 -3.765625 L 3.390625 -4.109375 C 2.523438 -4.316406 1.890625 -4.640625 1.484375 -5.078125 C 1.078125 -5.515625 0.875 -6.066406 0.875 -6.734375 C 0.875 -7.265625 1.007812 -7.726562 1.28125 -8.125 C 1.5625 -8.519531 1.953125 -8.820312 2.453125 -9.03125 C 2.960938 -9.238281 3.554688 -9.34375 4.234375 -9.34375 C 5.078125 -9.34375 5.753906 -9.222656 6.265625 -8.984375 C 6.773438 -8.753906 7.175781 -8.4375 7.46875 -8.03125 L 6.46875 -6.984375 L 6.296875 -6.984375 C 6.023438 -7.296875 5.722656 -7.519531 5.390625 -7.65625 C 5.054688 -7.800781 4.671875 -7.875 4.234375 -7.875 C 3.703125 -7.875 3.300781 -7.78125 3.03125 -7.59375 C 2.757812 -7.414062 2.625 -7.15625 2.625 -6.8125 C 2.625 -6.507812 2.722656 -6.265625 2.921875 -6.078125 C 3.117188 -5.890625 3.460938 -5.738281 3.953125 -5.625 L 5.28125 -5.3125 C 6.15625 -5.113281 6.785156 -4.796875 7.171875 -4.359375 C 7.566406 -3.921875 7.765625 -3.351562 7.765625 -2.65625 C 7.765625 -2.09375 7.625 -1.597656 7.34375 -1.171875 C 7.070312 -0.753906 6.671875 -0.425781 6.140625 -0.1875 C 5.617188 0.0507812 4.984375 0.171875 4.234375 0.171875 Z M 4.234375 0.171875 "/></g></g></g><g fill="#ffffff" fill-opacity="1"><g transform="translate(151.76776, 25.969047)"><g><path d="M 2.296875 0.078125 C 1.910156 0.078125 1.601562 -0.03125 1.375 -0.25 C 1.15625 -0.46875 1.046875 -0.753906 1.046875 -1.109375 C 1.046875 -1.453125 1.160156 -1.734375 1.390625 -1.953125 C 1.617188 -2.179688 1.921875 -2.296875 2.296875 -2.296875 C 2.679688 -2.296875 2.984375 -2.1875 3.203125 -1.96875 C 3.429688 -1.75 3.546875 -1.460938 3.546875 -1.109375 C 3.546875 -0.765625 3.429688 -0.476562 3.203125 -0.25 C 2.984375 -0.03125 2.679688 0.078125 2.296875 0.078125 Z M 2.296875 0.078125 "/></g></g></g><g fill="#ffffff" fill-opacity="1"><g transform="translate(156.359281, 25.969047)"><g><path d="M 5.296875 0.171875 C 4.410156 0.171875 3.640625 -0.0078125 2.984375 -0.375 C 2.328125 -0.738281 1.816406 -1.273438 1.453125 -1.984375 C 1.097656 -2.703125 0.921875 -3.566406 0.921875 -4.578125 C 0.921875 -5.597656 1.097656 -6.460938 1.453125 -7.171875 C 1.816406 -7.878906 2.328125 -8.414062 2.984375 -8.78125 C 3.640625 -9.15625 4.410156 -9.34375 5.296875 -9.34375 C 6.179688 -9.34375 6.953125 -9.15625 7.609375 -8.78125 C 8.265625 -8.414062 8.773438 -7.878906 9.140625 -7.171875 C 9.503906 -6.460938 9.6875 -5.597656 9.6875 -4.578125 C 9.6875 -3.566406 9.503906 -2.703125 9.140625 -1.984375 C 8.773438 -1.273438 8.265625 -0.738281 7.609375 -0.375 C 6.953125 -0.0078125 6.179688 0.171875 5.296875 0.171875 Z M 5.296875 -1.40625 C 6.953125 -1.40625 7.78125 -2.460938 7.78125 -4.578125 C 7.78125 -6.703125 6.953125 -7.765625 5.296875 -7.765625 C 4.492188 -7.765625 3.878906 -7.503906 3.453125 -6.984375 C 3.023438 -6.472656 2.8125 -5.671875 2.8125 -4.578125 C 2.8125 -2.460938 3.640625 -1.40625 5.296875 -1.40625 Z M 5.296875 -1.40625 "/></g></g></g><g fill="#ffffff" fill-opacity="1"><g transform="translate(166.95638, 25.969047)"><g><path d="M 1.46875 0 L 1.46875 -9.171875 L 3.203125 -9.171875 L 3.203125 -7.78125 L 3.390625 -7.75 C 3.679688 -8.269531 4.054688 -8.664062 4.515625 -8.9375 C 4.984375 -9.207031 5.554688 -9.34375 6.234375 -9.34375 C 7.304688 -9.34375 8.09375 -9.054688 8.59375 -8.484375 C 9.09375 -7.921875 9.34375 -7.070312 9.34375 -5.9375 L 9.34375 0 L 7.515625 0 L 7.515625 -5.78125 C 7.515625 -6.5 7.367188 -7.007812 7.078125 -7.3125 C 6.796875 -7.625 6.34375 -7.78125 5.71875 -7.78125 C 4.96875 -7.78125 4.375 -7.535156 3.9375 -7.046875 C 3.507812 -6.554688 3.296875 -5.785156 3.296875 -4.734375 L 3.296875 0 Z M 1.46875 0 "/></g></g></g><g fill="#ffffff" fill-opacity="1"><g transform="translate(177.611708, 25.969047)"><g><path d="M 8.90625 -4.171875 L 2.796875 -4.171875 C 2.898438 -2.328125 3.753906 -1.40625 5.359375 -1.40625 C 5.953125 -1.40625 6.429688 -1.507812 6.796875 -1.71875 C 7.160156 -1.9375 7.445312 -2.273438 7.65625 -2.734375 L 7.828125 -2.734375 L 9.046875 -1.984375 C 8.753906 -1.328125 8.3125 -0.800781 7.71875 -0.40625 C 7.125 -0.0195312 6.335938 0.171875 5.359375 0.171875 C 4.441406 0.171875 3.648438 -0.00390625 2.984375 -0.359375 C 2.328125 -0.710938 1.816406 -1.242188 1.453125 -1.953125 C 1.097656 -2.660156 0.921875 -3.535156 0.921875 -4.578125 C 0.921875 -5.617188 1.109375 -6.5 1.484375 -7.21875 C 1.859375 -7.9375 2.375 -8.46875 3.03125 -8.8125 C 3.6875 -9.164062 4.421875 -9.34375 5.234375 -9.34375 C 6.472656 -9.34375 7.425781 -9.003906 8.09375 -8.328125 C 8.769531 -7.648438 9.113281 -6.65625 9.125 -5.34375 C 9.125 -4.851562 9.109375 -4.5 9.078125 -4.28125 Z M 7.34375 -5.484375 C 7.320312 -6.316406 7.132812 -6.925781 6.78125 -7.3125 C 6.425781 -7.695312 5.910156 -7.890625 5.234375 -7.890625 C 4.554688 -7.890625 4.015625 -7.695312 3.609375 -7.3125 C 3.203125 -6.925781 2.945312 -6.316406 2.84375 -5.484375 Z M 7.34375 -5.484375 "/></g></g></g></svg>